<svg xmlns="http://www.w3.org/2000/svg" xmlns:xlink="http://www.w3.org/1999/xlink" width="1240" zoomAndPan="magnify" viewBox="0 0 930 337.499995" height="450" preserveAspectRatio="xMidYMid meet" version="1.0"><defs><g/><clipPath id="75e250ec09"><path d="M 48 92 L 208 92 L 208 252 L 48 252 Z M 48 92 " clip-rule="nonzero"/></clipPath><clipPath id="33a92ee872"><path d="M 38.148438 117.648438 L 73.886719 81.910156 L 218.167969 226.191406 L 182.429688 261.929688 Z M 38.148438 117.648438 " clip-rule="nonzero"/></clipPath><clipPath id="b016716c92"><path d="M 55.96875 99.824219 C 60.695312 95.097656 67.105469 92.445312 73.792969 92.445312 C 80.476562 92.445312 86.886719 95.097656 91.613281 99.824219 L 200.070312 208.28125 C 204.796875 213.007812 207.449219 219.417969 207.449219 226.101562 C 207.449219 232.789062 204.796875 239.199219 200.070312 243.925781 C 195.34375 248.652344 188.929688 251.304688 182.246094 251.304688 C 175.5625 251.304688 169.152344 248.652344 164.425781 243.925781 L 55.96875 135.46875 C 51.242188 130.742188 48.589844 124.332031 48.589844 117.648438 C 48.589844 110.964844 51.242188 104.550781 55.96875 99.824219 " clip-rule="nonzero"/></clipPath><clipPath id="6093fb3782"><path d="M 58 195 L 152 195 L 152 288 L 58 288 Z M 58 195 " clip-rule="nonzero"/></clipPath><clipPath id="6591efd7ca"><path d="M 47.386719 221.847656 L 85.414062 183.820312 L 162.429688 260.832031 L 124.402344 298.863281 Z M 47.386719 221.847656 " clip-rule="nonzero"/></clipPath><clipPath id="7d377c1d65"><path d="M 66.308594 202.925781 C 76.757812 192.476562 93.699219 192.476562 104.152344 202.925781 L 143.285156 242.0625 C 153.734375 252.511719 153.734375 269.453125 143.285156 279.902344 C 132.835938 290.355469 115.894531 290.355469 105.441406 279.902344 L 66.308594 240.769531 C 55.859375 230.320312 55.859375 213.375 66.308594 202.925781 " clip-rule="nonzero"/></clipPath><clipPath id="6d3d56cbad"><path d="M 97 49 L 192 49 L 192 143 L 97 143 Z M 97 49 " clip-rule="nonzero"/></clipPath><clipPath id="0ec3d16533"><path d="M 86.878906 76.015625 L 124.910156 37.988281 L 202.878906 115.957031 L 164.847656 153.984375 Z M 86.878906 76.015625 " clip-rule="nonzero"/></clipPath><clipPath id="28427b479b"><path d="M 105.800781 57.09375 C 116.25 46.644531 133.195312 46.644531 143.644531 57.09375 L 183.652344 97.101562 C 194.101562 107.550781 194.101562 124.492188 183.652344 134.945312 C 173.199219 145.394531 156.257812 145.394531 145.808594 134.945312 L 105.800781 94.9375 C 95.351562 84.488281 95.351562 67.542969 105.800781 57.09375 " clip-rule="nonzero"/></clipPath></defs><g clip-path="url(#75e250ec09)"><g clip-path="url(#33a92ee872)"><g clip-path="url(#b016716c92)"><path fill="#00569e" d="M 38.148438 117.648438 L 73.886719 81.910156 L 217.976562 226 L 182.238281 261.738281 Z M 38.148438 117.648438 " fill-opacity="1" fill-rule="nonzero"/></g></g></g><g clip-path="url(#6093fb3782)"><g clip-path="url(#6591efd7ca)"><g clip-path="url(#7d377c1d65)"><path fill="#47c5fb" d="M 47.386719 221.847656 L 85.222656 184.007812 L 162.238281 261.023438 L 124.402344 298.863281 Z M 47.386719 221.847656 " fill-opacity="1" fill-rule="nonzero"/></g></g></g><g clip-path="url(#6d3d56cbad)"><g clip-path="url(#0ec3d16533)"><g clip-path="url(#28427b479b)"><path fill="#47c5fb" d="M 86.878906 76.015625 L 124.71875 38.179688 L 202.496094 115.957031 L 164.65625 153.792969 Z M 86.878906 76.015625 " fill-opacity="1" fill-rule="nonzero"/></g></g></g><g fill="#ffffff" fill-opacity="1"><g transform="translate(231.409805, 233.479104)"><g><path d="M 84.140625 -95.5625 C 83.441406 -100.96875 81.988281 -105.398438 79.78125 -108.859375 C 77.28125 -112.597656 74.195312 -115.332031 70.53125 -117.0625 C 66.863281 -118.789062 62.191406 -119.65625 56.515625 -119.65625 C 47.085938 -119.65625 40.503906 -117.648438 36.765625 -113.640625 C 33.171875 -110.035156 31.375 -104.84375 31.375 -98.0625 C 31.375 -94.175781 31.925781 -91.019531 33.03125 -88.59375 C 34.132812 -86.175781 35.796875 -84.207031 38.015625 -82.6875 C 41.335938 -80.332031 46.8125 -78.804688 54.4375 -78.109375 C 62.1875 -77.421875 68.726562 -76.347656 74.0625 -74.890625 C 79.394531 -73.441406 84.070312 -71.46875 88.09375 -68.96875 C 98.195312 -62.601562 103.25 -52.632812 103.25 -39.0625 C 103.25 -33.789062 102.207031 -28.800781 100.125 -24.09375 C 98.050781 -19.382812 95.144531 -15.160156 91.40625 -11.421875 C 86.976562 -7.128906 81.75 -3.941406 75.71875 -1.859375 C 69.695312 0.210938 63.429688 1.25 56.921875 1.25 C 42.242188 1.25 30.539062 -2.90625 21.8125 -11.21875 C 14.332031 -18.695312 9.832031 -28.671875 8.3125 -41.140625 L 8.71875 -41.34375 L 27 -41.34375 C 28.113281 -34 30.609375 -28.53125 34.484375 -24.9375 C 39.890625 -19.945312 47.160156 -17.453125 56.296875 -17.453125 C 65.023438 -17.453125 71.953125 -19.457031 77.078125 -23.46875 C 82.203125 -27.488281 84.765625 -32.6875 84.765625 -39.0625 C 84.765625 -41.96875 84.382812 -44.492188 83.625 -46.640625 C 82.863281 -48.785156 81.441406 -50.691406 79.359375 -52.359375 C 74.648438 -55.953125 65.851562 -58.234375 52.96875 -59.203125 C 39.8125 -60.316406 29.835938 -64.128906 23.046875 -70.640625 C 16.265625 -77.148438 12.875 -86.289062 12.875 -98.0625 C 12.875 -109.96875 16.546875 -119.59375 23.890625 -126.9375 C 31.648438 -134.6875 42.453125 -138.5625 56.296875 -138.5625 C 70.703125 -138.5625 81.921875 -134.203125 89.953125 -125.484375 C 97.015625 -117.867188 101.3125 -107.894531 102.84375 -95.5625 Z M 84.140625 -95.5625 "/></g></g></g><g fill="#ffffff" fill-opacity="1"><g transform="translate(342.967165, 233.479104)"><g><path d="M 41.546875 -85.171875 L 41.546875 0 L 23.890625 0 L 23.890625 -85.171875 L 8.3125 -85.171875 L 8.3125 -103.875 L 23.890625 -103.875 L 23.890625 -138.15625 L 41.546875 -138.15625 L 41.546875 -103.875 L 57.125 -103.875 L 57.125 -85.171875 Z M 41.546875 -85.171875 "/></g></g></g><g fill="#ffffff" fill-opacity="1"><g transform="translate(408.405871, 233.479104)"><g><path d="M 60.875 1.03125 C 53.8125 1.03125 47.09375 -0.347656 40.71875 -3.109375 C 34.34375 -5.878906 28.734375 -9.691406 23.890625 -14.546875 C 19.046875 -19.390625 15.238281 -24.992188 12.46875 -31.359375 C 9.695312 -37.734375 8.3125 -44.453125 8.3125 -51.515625 C 8.3125 -58.722656 9.695312 -65.582031 12.46875 -72.09375 C 15.238281 -78.601562 19.046875 -84.28125 23.890625 -89.125 C 28.734375 -93.96875 34.34375 -97.738281 40.71875 -100.4375 C 47.09375 -103.144531 53.8125 -104.5 60.875 -104.5 C 68.070312 -104.5 74.925781 -103.144531 81.4375 -100.4375 C 87.945312 -97.738281 93.625 -93.96875 98.46875 -89.125 C 103.320312 -84.28125 107.097656 -78.601562 109.796875 -72.09375 C 112.492188 -65.582031 113.84375 -58.722656 113.84375 -51.515625 C 113.84375 -44.453125 112.492188 -37.734375 109.796875 -31.359375 C 107.097656 -24.992188 103.320312 -19.390625 98.46875 -14.546875 C 93.625 -9.691406 87.945312 -5.878906 81.4375 -3.109375 C 74.925781 -0.347656 68.070312 1.03125 60.875 1.03125 Z M 60.875 -86.015625 C 51.59375 -86.015625 43.628906 -82.6875 36.984375 -76.03125 C 33.796875 -72.851562 31.300781 -69.113281 29.5 -64.8125 C 27.695312 -60.519531 26.796875 -56.085938 26.796875 -51.515625 C 26.796875 -46.953125 27.695312 -42.59375 29.5 -38.4375 C 31.300781 -34.28125 33.796875 -30.609375 36.984375 -27.421875 C 40.160156 -24.234375 43.789062 -21.738281 47.875 -19.9375 C 51.96875 -18.144531 56.300781 -17.25 60.875 -17.25 C 65.4375 -17.25 69.863281 -18.144531 74.15625 -19.9375 C 78.457031 -21.738281 82.128906 -24.234375 85.171875 -27.421875 C 88.222656 -30.609375 90.648438 -34.28125 92.453125 -38.4375 C 94.253906 -42.59375 95.15625 -46.953125 95.15625 -51.515625 C 95.15625 -56.085938 94.253906 -60.519531 92.453125 -64.8125 C 90.648438 -69.113281 88.222656 -72.851562 85.171875 -76.03125 C 82.128906 -79.21875 78.492188 -81.675781 74.265625 -83.40625 C 70.046875 -85.144531 65.582031 -86.015625 60.875 -86.015625 Z M 60.875 -86.015625 "/></g></g></g><g fill="#ffffff" fill-opacity="1"><g transform="translate(530.558097, 233.479104)"><g><path d="M 56.71875 -83.9375 C 53.394531 -85.457031 50.414062 -86.21875 47.78125 -86.21875 C 42.238281 -86.21875 37.671875 -84.28125 34.078125 -80.40625 C 30.191406 -76.25 28.25 -71.46875 28.25 -66.0625 L 28.25 0 L 10.390625 0 L 10.390625 -66.0625 C 10.390625 -73.539062 12.289062 -80.394531 16.09375 -86.625 C 19.90625 -92.863281 25.132812 -97.710938 31.78125 -101.171875 C 36.769531 -103.523438 42.101562 -104.703125 47.78125 -104.703125 C 52.351562 -104.703125 56.71875 -103.867188 60.875 -102.203125 C 65.03125 -100.546875 69.390625 -97.847656 73.953125 -94.109375 Z M 56.71875 -83.9375 "/></g></g></g><g fill="#ffffff" fill-opacity="1"><g transform="translate(612.823882, 233.479104)"><g><path d="M 129.84375 0 L 129.84375 -65.03125 C 129.84375 -70.707031 127.867188 -75.484375 123.921875 -79.359375 C 119.972656 -83.234375 115.160156 -85.171875 109.484375 -85.171875 C 103.941406 -85.171875 99.09375 -83.234375 94.9375 -79.359375 C 90.925781 -75.617188 88.921875 -70.910156 88.921875 -65.234375 L 88.921875 0 L 70.015625 0 L 70.015625 -65.234375 C 70.015625 -71.046875 68.070312 -75.753906 64.1875 -79.359375 C 60.039062 -83.234375 55.125 -85.171875 49.4375 -85.171875 C 43.90625 -85.171875 39.195312 -83.234375 35.3125 -79.359375 C 31.15625 -75.203125 29.078125 -70.285156 29.078125 -64.609375 L 29.078125 0 L 10.390625 0 L 10.390625 -101.375 L 29.078125 -101.375 L 29.078125 -93.6875 C 31.429688 -96.601562 34.515625 -99.03125 38.328125 -100.96875 C 42.140625 -102.90625 45.84375 -103.875 49.4375 -103.875 C 55.53125 -103.875 61.101562 -102.660156 66.15625 -100.234375 C 71.21875 -97.816406 75.617188 -94.457031 79.359375 -90.15625 C 83.097656 -94.457031 87.53125 -97.816406 92.65625 -100.234375 C 97.78125 -102.660156 103.390625 -103.875 109.484375 -103.875 C 114.890625 -103.875 119.945312 -102.90625 124.65625 -100.96875 C 129.363281 -99.03125 133.515625 -96.257812 137.109375 -92.65625 C 140.710938 -89.050781 143.519531 -84.859375 145.53125 -80.078125 C 147.539062 -75.304688 148.546875 -70.289062 148.546875 -65.03125 L 148.546875 0 Z M 129.84375 0 "/></g></g></g><g fill="#ffffff" fill-opacity="1"><g transform="translate(771.746404, 233.479104)"><g><path d="M 91 0 L 60.046875 -51.109375 L 28.875 0 L 7.265625 0 L 49.234375 -68.96875 L 7.265625 -138.15625 L 28.875 -138.15625 L 60.046875 -86.84375 L 91.203125 -138.15625 L 112.8125 -138.15625 L 70.84375 -69.1875 L 112.8125 0 Z M 91 0 "/></g></g></g></svg>